<mxfile host="Electron" agent="Mozilla/5.0 (Windows NT 10.0; Win64; x64) AppleWebKit/537.36 (KHTML, like Gecko) draw.io/26.1.1 Chrome/132.0.6834.210 Electron/34.3.3 Safari/537.36" version="26.1.1">
  <diagram name="PÃ¡gina-1" id="GJEIAjaZK0kfiM3TGm7x">
    <mxGraphModel dx="2901" dy="836" grid="1" gridSize="10" guides="1" tooltips="1" connect="1" arrows="1" fold="1" page="1" pageScale="1" pageWidth="827" pageHeight="1169" math="0" shadow="0">
      <root>
        <mxCell id="0" />
        <mxCell id="1" parent="0" />
        <mxCell id="bX5gsE0m3Yn_kgOYzzvG-2" value="SCRIPTS MANUAIS | AGENDADOS COM CRON" style="fillColor=none;strokeColor=#5A6C86;dashed=1;verticalAlign=top;fontStyle=0;fontColor=#5A6C86;whiteSpace=wrap;html=1;" vertex="1" parent="1">
          <mxGeometry x="-440" y="160" width="710" height="440" as="geometry" />
        </mxCell>
        <mxCell id="bX5gsE0m3Yn_kgOYzzvG-13" value="Treinamento de Modelos" style="fillColor=none;strokeColor=#5A6C86;dashed=1;verticalAlign=top;fontStyle=0;fontColor=#5A6C86;whiteSpace=wrap;html=1;" vertex="1" parent="1">
          <mxGeometry x="-50" y="410" width="290" height="150" as="geometry" />
        </mxCell>
        <mxCell id="bX5gsE0m3Yn_kgOYzzvG-9" value="CONSUMO FINAL" style="fillColor=none;strokeColor=#5A6C86;dashed=1;verticalAlign=top;fontStyle=0;fontColor=#5A6C86;whiteSpace=wrap;html=1;" vertex="1" parent="1">
          <mxGeometry x="660" y="160" width="240" height="390" as="geometry" />
        </mxCell>
        <mxCell id="J5O7sj9_nqmRkPlykjRa-51" value="Captura dos Dados" style="fillColor=none;strokeColor=#5A6C86;dashed=1;verticalAlign=top;fontStyle=0;fontColor=#5A6C86;whiteSpace=wrap;html=1;" parent="1" vertex="1">
          <mxGeometry x="-410" y="210" width="300" height="170" as="geometry" />
        </mxCell>
        <mxCell id="J5O7sj9_nqmRkPlykjRa-52" value="Armazenamento dos Dados" style="fillColor=none;strokeColor=#5A6C86;dashed=1;verticalAlign=top;fontStyle=0;fontColor=#5A6C86;whiteSpace=wrap;html=1;" parent="1" vertex="1">
          <mxGeometry x="-50" y="210" width="290" height="170" as="geometry" />
        </mxCell>
        <mxCell id="J5O7sj9_nqmRkPlykjRa-29" style="edgeStyle=orthogonalEdgeStyle;rounded=0;orthogonalLoop=1;jettySize=auto;html=1;" parent="1" source="J5O7sj9_nqmRkPlykjRa-1" target="J5O7sj9_nqmRkPlykjRa-12" edge="1">
          <mxGeometry relative="1" as="geometry" />
        </mxCell>
        <mxCell id="J5O7sj9_nqmRkPlykjRa-1" value="Embrapa" style="sketch=0;outlineConnect=0;fontColor=#232F3E;gradientColor=none;fillColor=#232F3D;strokeColor=none;dashed=0;verticalLabelPosition=bottom;verticalAlign=top;align=center;html=1;fontSize=12;fontStyle=0;aspect=fixed;pointerEvents=1;shape=mxgraph.aws4.globe;" parent="1" vertex="1">
          <mxGeometry x="-367" y="250" width="78" height="78" as="geometry" />
        </mxCell>
        <mxCell id="J5O7sj9_nqmRkPlykjRa-3" value="API" style="fillColor=none;strokeColor=#5A6C86;dashed=1;verticalAlign=top;fontStyle=0;fontColor=#5A6C86;whiteSpace=wrap;html=1;" parent="1" vertex="1">
          <mxGeometry x="350" y="160" width="240" height="440" as="geometry" />
        </mxCell>
        <mxCell id="J5O7sj9_nqmRkPlykjRa-12" value="API Scraping" style="sketch=0;points=[[0,0,0],[0.25,0,0],[0.5,0,0],[0.75,0,0],[1,0,0],[0,1,0],[0.25,1,0],[0.5,1,0],[0.75,1,0],[1,1,0],[0,0.25,0],[0,0.5,0],[0,0.75,0],[1,0.25,0],[1,0.5,0],[1,0.75,0]];outlineConnect=0;fontColor=#232F3E;fillColor=#C925D1;strokeColor=#ffffff;dashed=0;verticalLabelPosition=bottom;verticalAlign=top;align=center;html=1;fontSize=12;fontStyle=0;aspect=fixed;shape=mxgraph.aws4.resourceIcon;resIcon=mxgraph.aws4.command_line_interface;" parent="1" vertex="1">
          <mxGeometry x="-217" y="250" width="78" height="78" as="geometry" />
        </mxCell>
        <mxCell id="J5O7sj9_nqmRkPlykjRa-16" value="LSTM" style="sketch=0;points=[[0,0,0],[0.25,0,0],[0.5,0,0],[0.75,0,0],[1,0,0],[0,1,0],[0.25,1,0],[0.5,1,0],[0.75,1,0],[1,1,0],[0,0.25,0],[0,0.5,0],[0,0.75,0],[1,0.25,0],[1,0.5,0],[1,0.75,0]];outlineConnect=0;fontColor=#232F3E;fillColor=#01A88D;strokeColor=#ffffff;dashed=0;verticalLabelPosition=bottom;verticalAlign=top;align=center;html=1;fontSize=12;fontStyle=0;aspect=fixed;shape=mxgraph.aws4.resourceIcon;resIcon=mxgraph.aws4.forecast;" parent="1" vertex="1">
          <mxGeometry x="120" y="456" width="78" height="78" as="geometry" />
        </mxCell>
        <mxCell id="J5O7sj9_nqmRkPlykjRa-26" value="Dataprep" style="sketch=0;points=[[0,0,0],[0.25,0,0],[0.5,0,0],[0.75,0,0],[1,0,0],[0,1,0],[0.25,1,0],[0.5,1,0],[0.75,1,0],[1,1,0],[0,0.25,0],[0,0.5,0],[0,0.75,0],[1,0.25,0],[1,0.5,0],[1,0.75,0]];outlineConnect=0;fontColor=#232F3E;fillColor=#C925D1;strokeColor=#ffffff;dashed=0;verticalLabelPosition=bottom;verticalAlign=top;align=center;html=1;fontSize=12;fontStyle=0;aspect=fixed;shape=mxgraph.aws4.resourceIcon;resIcon=mxgraph.aws4.command_line_interface;" parent="1" vertex="1">
          <mxGeometry x="-10" y="256" width="78" height="78" as="geometry" />
        </mxCell>
        <mxCell id="bX5gsE0m3Yn_kgOYzzvG-6" style="edgeStyle=orthogonalEdgeStyle;rounded=0;orthogonalLoop=1;jettySize=auto;html=1;" edge="1" parent="1" source="J5O7sj9_nqmRkPlykjRa-30" target="J5O7sj9_nqmRkPlykjRa-16">
          <mxGeometry relative="1" as="geometry" />
        </mxCell>
        <mxCell id="bX5gsE0m3Yn_kgOYzzvG-7" style="edgeStyle=orthogonalEdgeStyle;rounded=0;orthogonalLoop=1;jettySize=auto;html=1;" edge="1" parent="1" source="J5O7sj9_nqmRkPlykjRa-30" target="J5O7sj9_nqmRkPlykjRa-53">
          <mxGeometry relative="1" as="geometry" />
        </mxCell>
        <mxCell id="J5O7sj9_nqmRkPlykjRa-30" value="Dados Tratados" style="sketch=0;points=[[0,0,0],[0.25,0,0],[0.5,0,0],[0.75,0,0],[1,0,0],[0,1,0],[0.25,1,0],[0.5,1,0],[0.75,1,0],[1,1,0],[0,0.25,0],[0,0.5,0],[0,0.75,0],[1,0.25,0],[1,0.5,0],[1,0.75,0]];outlineConnect=0;fontColor=#232F3E;fillColor=#C925D1;strokeColor=#ffffff;dashed=0;verticalLabelPosition=bottom;verticalAlign=top;align=center;html=1;fontSize=12;fontStyle=0;aspect=fixed;shape=mxgraph.aws4.resourceIcon;resIcon=mxgraph.aws4.database;" parent="1" vertex="1">
          <mxGeometry x="120" y="256" width="78" height="78" as="geometry" />
        </mxCell>
        <mxCell id="J5O7sj9_nqmRkPlykjRa-31" style="edgeStyle=orthogonalEdgeStyle;rounded=0;orthogonalLoop=1;jettySize=auto;html=1;entryX=0;entryY=0.5;entryDx=0;entryDy=0;entryPerimeter=0;" parent="1" source="J5O7sj9_nqmRkPlykjRa-26" target="J5O7sj9_nqmRkPlykjRa-30" edge="1">
          <mxGeometry relative="1" as="geometry" />
        </mxCell>
        <mxCell id="J5O7sj9_nqmRkPlykjRa-47" value="Dashboard&lt;div&gt;(Power BI)&lt;/div&gt;" style="sketch=0;points=[[0,0,0],[0.25,0,0],[0.5,0,0],[0.75,0,0],[1,0,0],[0,1,0],[0.25,1,0],[0.5,1,0],[0.75,1,0],[1,1,0],[0,0.25,0],[0,0.5,0],[0,0.75,0],[1,0.25,0],[1,0.5,0],[1,0.75,0]];outlineConnect=0;fontColor=#232F3E;fillColor=#8C4FFF;strokeColor=#ffffff;dashed=0;verticalLabelPosition=bottom;verticalAlign=top;align=center;html=1;fontSize=12;fontStyle=0;aspect=fixed;shape=mxgraph.aws4.resourceIcon;resIcon=mxgraph.aws4.elasticsearch_service;" parent="1" vertex="1">
          <mxGeometry x="700" y="345.5" width="78" height="78" as="geometry" />
        </mxCell>
        <mxCell id="J5O7sj9_nqmRkPlykjRa-53" value="CRUD" style="sketch=0;outlineConnect=0;fontColor=#232F3E;gradientColor=none;fillColor=#8C4FFF;strokeColor=none;dashed=0;verticalLabelPosition=bottom;verticalAlign=top;align=center;html=1;fontSize=12;fontStyle=0;aspect=fixed;pointerEvents=1;shape=mxgraph.aws4.search_documents;" parent="1" vertex="1">
          <mxGeometry x="430" y="256" width="68" height="78" as="geometry" />
        </mxCell>
        <mxCell id="bX5gsE0m3Yn_kgOYzzvG-1" style="edgeStyle=orthogonalEdgeStyle;rounded=0;orthogonalLoop=1;jettySize=auto;html=1;entryX=0;entryY=0.5;entryDx=0;entryDy=0;entryPerimeter=0;" edge="1" parent="1" source="J5O7sj9_nqmRkPlykjRa-51" target="J5O7sj9_nqmRkPlykjRa-26">
          <mxGeometry relative="1" as="geometry" />
        </mxCell>
        <mxCell id="bX5gsE0m3Yn_kgOYzzvG-4" style="edgeStyle=orthogonalEdgeStyle;rounded=0;orthogonalLoop=1;jettySize=auto;html=1;" edge="1" parent="1" source="J5O7sj9_nqmRkPlykjRa-16" target="bX5gsE0m3Yn_kgOYzzvG-5">
          <mxGeometry relative="1" as="geometry">
            <mxPoint x="410" y="359" as="targetPoint" />
          </mxGeometry>
        </mxCell>
        <mxCell id="bX5gsE0m3Yn_kgOYzzvG-5" value="CONSUMO DO MODELO TREINADO" style="sketch=0;outlineConnect=0;fontColor=#232F3E;gradientColor=none;fillColor=#8C4FFF;strokeColor=none;dashed=0;verticalLabelPosition=bottom;verticalAlign=top;align=center;html=1;fontSize=12;fontStyle=0;aspect=fixed;pointerEvents=1;shape=mxgraph.aws4.search_documents;" vertex="1" parent="1">
          <mxGeometry x="436" y="456" width="68" height="78" as="geometry" />
        </mxCell>
        <mxCell id="bX5gsE0m3Yn_kgOYzzvG-11" style="edgeStyle=orthogonalEdgeStyle;rounded=0;orthogonalLoop=1;jettySize=auto;html=1;entryX=0;entryY=0.5;entryDx=0;entryDy=0;entryPerimeter=0;" edge="1" parent="1" source="bX5gsE0m3Yn_kgOYzzvG-5" target="J5O7sj9_nqmRkPlykjRa-47">
          <mxGeometry relative="1" as="geometry">
            <Array as="points">
              <mxPoint x="610" y="463" />
              <mxPoint x="610" y="385" />
            </Array>
          </mxGeometry>
        </mxCell>
        <mxCell id="bX5gsE0m3Yn_kgOYzzvG-12" style="edgeStyle=orthogonalEdgeStyle;rounded=0;orthogonalLoop=1;jettySize=auto;html=1;entryX=0;entryY=0.5;entryDx=0;entryDy=0;entryPerimeter=0;" edge="1" parent="1" source="J5O7sj9_nqmRkPlykjRa-53" target="J5O7sj9_nqmRkPlykjRa-47">
          <mxGeometry relative="1" as="geometry">
            <Array as="points">
              <mxPoint x="610" y="295" />
              <mxPoint x="610" y="385" />
            </Array>
          </mxGeometry>
        </mxCell>
      </root>
    </mxGraphModel>
  </diagram>
</mxfile>
